Coordinates
nRows=4
nColumns=38

# SIMM Motion File Header:
name Coordinates
datacolumns 38
datarows 4
otherdata 1
range 0.91700000000000004000 0.92000000000000004000

Units are S.I. units (second, meters, Newtons, ...)
Angles are in degrees.

endheader
time	pelvis_tilt	pelvis_list	pelvis_rotation	pelvis_tx	pelvis_ty	pelvis_tz	hip_flexion_r	hip_adduction_r	hip_rotation_r	knee_angle_r	ankle_angle_r	subtalar_angle_r	mtp_angle_r	hip_flexion_l	hip_adduction_l	hip_rotation_l	knee_angle_l	ankle_angle_l	subtalar_angle_l	mtp_angle_l	lumbar_extension	lumbar_bending	lumbar_rotation	arm_flex_r	arm_add_r	arm_rot_r	elbow_flex_r	pro_sup_r	wrist_flex_r	wrist_dev_r	arm_flex_l	arm_add_l	arm_rot_l	elbow_flex_l	pro_sup_l	wrist_flex_l	wrist_dev_l
      0.91700000000000004000	     -6.31838252807126290000	     -1.50218579182552170000	     -4.32250579419782530000	      0.90221582242447462000	      0.99597813808688829000	     -0.32625691208937330000	     -0.67142456966644215000	      9.85419050714130940000	      8.78462608334872110000	    -27.97910400396910900000	     19.18635056638468600000	     -0.00000000000000020410	      0.00000000000000875464	     46.83517567187478600000	      3.62899815764795400000	      5.44980878993321390000	    -97.20652951263227200000	      3.50430230478712760000	      0.00000000000000647982	      0.00000000000000148630	     -4.73728385352221700000	      6.02172470057968390000	     13.11655831954958100000	    -17.64154218300905800000	    -12.98630423578710400000	     -8.57536738664342660000	    123.29364860993896000000	     94.15840052370637600000	     -0.00000000000000154871	      0.00000000000000604399	    -28.21551721037327800000	    -21.27213570735175500000	      1.11452574015093280000	    118.69538415160248000000	     94.11565106452671600000	      0.00000000000000998470	     -0.00000000000000289601
      0.91800000000000004000	     -6.32687199619296870000	     -1.38101119688323570000	     -4.28900739619864350000	      0.90257260091175517000	      0.99666626914953638000	     -0.32634381212652014000	     -1.08292508661575340000	      9.65726001050848030000	      8.79353246801485430000	    -27.59906628357969200000	     18.63724725596211600000	     -0.00000000000000011285	      0.00000000000000887267	     46.93605121362630000000	      3.76616297649529350000	      5.44241186780861510000	    -96.70960306314901800000	      3.51267179414249280000	      0.00000000000000656815	      0.00000000000000134856	     -4.65992680860797930000	      5.88810411592183860000	     13.20186034683644600000	    -17.67272095174140400000	    -12.99535549702818400000	     -8.45850791774921440000	    123.52126978611416000000	     94.28840433805515900000	     -0.00000000000000156697	      0.00000000000000617749	    -28.39617211189207400000	    -21.22241216397858200000	      1.03386227495598960000	    118.81211938581829000000	     94.03276459418042100000	      0.00000000000001009408	     -0.00000000000000295999
      0.91900000000000004000	     -6.33379147097875440000	     -1.25879050483970500000	     -4.25417166029901580000	      0.90293520313082110000	      0.99736041833460076000	     -0.32643405278839216000	     -1.49411334064373570000	      9.45831465278073400000	      8.79530553289998980000	    -27.21847121476259100000	     18.07466036810706100000	     -0.00000000000000003068	      0.00000000000000897498	     47.03006536563894000000	      3.90473015252971980000	      5.43450470421572350000	    -96.20583834106315600000	      3.51935955372782370000	      0.00000000000000665716	      0.00000000000000121230	     -4.58379058696098430000	      5.75321559802532880000	     13.28384970921893400000	    -17.70440110341593300000	    -13.00363453359677700000	     -8.34119044321812280000	    123.74633383390643000000	     94.42034585442974000000	     -0.00000000000000158420	      0.00000000000000631047	    -28.57875693776275800000	    -21.17026584745334000000	      0.95008423697163913000	    118.92838924539780000000	     93.94935630175335500000	      0.00000000000001020324	     -0.00000000000000302740
      0.92000000000000004000	     -6.33920479891872370000	     -1.13564555679094560000	     -4.21800530298562930000	      0.90330331592215674000	      0.99806020679849050000	     -0.32652758965682094000	     -1.90480379635701370000	      9.25756132156763380000	      8.78980626922551700000	    -26.83751207793129000000	     17.49881611927509800000	      0.00000000000000002833	      0.00000000000000911804	     47.11731579923616000000	      4.04458718321336090000	      5.42624227630968470000	    -95.69532273941986500000	      3.52427580338048550000	      0.00000000000000674618	      0.00000000000000106162	     -4.50887063117705540000	      5.61719367932707230000	     13.36252131309797300000	    -17.73656763871289900000	    -13.01117777245248200000	     -8.22343004880792350000	    123.96884795456967000000	     94.55405375618431700000	     -0.00000000000000160176	      0.00000000000000644378	    -28.76324719308301400000	    -21.11567730237575800000	      0.86324849376579138000	    119.04417539443729000000	     93.86541144759407000000	      0.00000000000001031294	     -0.00000000000000308714
